<mxfile host="Electron" agent="Mozilla/5.0 (Windows NT 10.0; Win64; x64) AppleWebKit/537.36 (KHTML, like Gecko) draw.io/27.0.9 Chrome/134.0.6998.205 Electron/35.4.0 Safari/537.36" version="27.0.9">
  <diagram name="Page-1" id="7mBq3x8J04R7vLOHt6SM">
    <mxGraphModel dx="928" dy="763" grid="1" gridSize="10" guides="1" tooltips="1" connect="1" arrows="1" fold="1" page="1" pageScale="1" pageWidth="850" pageHeight="1100" math="0" shadow="0">
      <root>
        <mxCell id="0" />
        <mxCell id="1" parent="0" />
        <mxCell id="BkWEKPThOtpIUI_U3NQu-1" value="" style="whiteSpace=wrap;html=1;aspect=fixed;" vertex="1" parent="1">
          <mxGeometry x="160" y="100" width="320" height="320" as="geometry" />
        </mxCell>
        <mxCell id="BkWEKPThOtpIUI_U3NQu-2" value="" style="rounded=0;whiteSpace=wrap;html=1;fillColor=#3399FF;" vertex="1" parent="1">
          <mxGeometry x="160" y="100" width="320" height="40" as="geometry" />
        </mxCell>
        <mxCell id="BkWEKPThOtpIUI_U3NQu-17" value="" style="rounded=0;whiteSpace=wrap;html=1;" vertex="1" parent="1">
          <mxGeometry x="160" y="140" width="320" height="40" as="geometry" />
        </mxCell>
        <mxCell id="BkWEKPThOtpIUI_U3NQu-18" value="" style="rounded=0;whiteSpace=wrap;html=1;" vertex="1" parent="1">
          <mxGeometry x="160" y="180" width="320" height="40" as="geometry" />
        </mxCell>
        <mxCell id="BkWEKPThOtpIUI_U3NQu-19" value="" style="rounded=0;whiteSpace=wrap;html=1;" vertex="1" parent="1">
          <mxGeometry x="160" y="260" width="320" height="40" as="geometry" />
        </mxCell>
        <mxCell id="BkWEKPThOtpIUI_U3NQu-20" value="" style="rounded=0;whiteSpace=wrap;html=1;" vertex="1" parent="1">
          <mxGeometry x="160" y="220" width="320" height="40" as="geometry" />
        </mxCell>
        <mxCell id="BkWEKPThOtpIUI_U3NQu-21" value="" style="rounded=0;whiteSpace=wrap;html=1;" vertex="1" parent="1">
          <mxGeometry x="160" y="300" width="320" height="40" as="geometry" />
        </mxCell>
        <mxCell id="BkWEKPThOtpIUI_U3NQu-22" value="" style="rounded=0;whiteSpace=wrap;html=1;" vertex="1" parent="1">
          <mxGeometry x="160" y="340" width="320" height="40" as="geometry" />
        </mxCell>
        <mxCell id="BkWEKPThOtpIUI_U3NQu-23" value="" style="ellipse;whiteSpace=wrap;html=1;" vertex="1" parent="1">
          <mxGeometry x="170" y="150" width="20" height="20" as="geometry" />
        </mxCell>
        <mxCell id="BkWEKPThOtpIUI_U3NQu-24" value="" style="ellipse;whiteSpace=wrap;html=1;" vertex="1" parent="1">
          <mxGeometry x="170" y="190" width="20" height="20" as="geometry" />
        </mxCell>
        <mxCell id="BkWEKPThOtpIUI_U3NQu-25" value="" style="ellipse;whiteSpace=wrap;html=1;" vertex="1" parent="1">
          <mxGeometry x="170" y="230" width="20" height="20" as="geometry" />
        </mxCell>
        <mxCell id="BkWEKPThOtpIUI_U3NQu-26" value="" style="ellipse;whiteSpace=wrap;html=1;" vertex="1" parent="1">
          <mxGeometry x="170" y="270" width="20" height="20" as="geometry" />
        </mxCell>
        <mxCell id="BkWEKPThOtpIUI_U3NQu-27" value="" style="ellipse;whiteSpace=wrap;html=1;" vertex="1" parent="1">
          <mxGeometry x="170" y="310" width="20" height="20" as="geometry" />
        </mxCell>
        <mxCell id="BkWEKPThOtpIUI_U3NQu-28" value="" style="ellipse;whiteSpace=wrap;html=1;" vertex="1" parent="1">
          <mxGeometry x="170" y="390" width="20" height="20" as="geometry" />
        </mxCell>
        <mxCell id="BkWEKPThOtpIUI_U3NQu-29" value="" style="ellipse;whiteSpace=wrap;html=1;" vertex="1" parent="1">
          <mxGeometry x="170" y="350" width="20" height="20" as="geometry" />
        </mxCell>
        <mxCell id="BkWEKPThOtpIUI_U3NQu-33" value="" style="verticalLabelPosition=bottom;shadow=0;dashed=0;align=center;html=1;verticalAlign=top;shape=mxgraph.electrical.abstract.summation_point;" vertex="1" parent="1">
          <mxGeometry x="440" y="110" width="25" height="20" as="geometry" />
        </mxCell>
        <mxCell id="BkWEKPThOtpIUI_U3NQu-35" value="L" style="endArrow=classic;html=1;rounded=0;entryX=1;entryY=0.5;entryDx=0;entryDy=0;" edge="1" parent="1" target="BkWEKPThOtpIUI_U3NQu-19">
          <mxGeometry relative="1" as="geometry">
            <mxPoint x="810" y="280" as="sourcePoint" />
            <mxPoint x="680" y="270" as="targetPoint" />
          </mxGeometry>
        </mxCell>
        <mxCell id="BkWEKPThOtpIUI_U3NQu-36" value="Long press or right click gives option to delete it or move task" style="edgeLabel;resizable=0;html=1;;align=center;verticalAlign=middle;" connectable="0" vertex="1" parent="BkWEKPThOtpIUI_U3NQu-35">
          <mxGeometry relative="1" as="geometry">
            <mxPoint x="1" as="offset" />
          </mxGeometry>
        </mxCell>
        <mxCell id="BkWEKPThOtpIUI_U3NQu-55" value="L" style="endArrow=classic;html=1;rounded=0;entryX=1;entryY=0.5;entryDx=0;entryDy=0;" edge="1" parent="1">
          <mxGeometry relative="1" as="geometry">
            <mxPoint x="660" y="120" as="sourcePoint" />
            <mxPoint x="480" y="119.55000000000001" as="targetPoint" />
          </mxGeometry>
        </mxCell>
        <mxCell id="BkWEKPThOtpIUI_U3NQu-56" value="Newest added at the bottom" style="edgeLabel;resizable=0;html=1;;align=center;verticalAlign=middle;" connectable="0" vertex="1" parent="BkWEKPThOtpIUI_U3NQu-55">
          <mxGeometry relative="1" as="geometry" />
        </mxCell>
        <mxCell id="BkWEKPThOtpIUI_U3NQu-60" value="" style="endArrow=classic;html=1;rounded=0;entryX=0;entryY=0.5;entryDx=0;entryDy=0;" edge="1" parent="1" target="BkWEKPThOtpIUI_U3NQu-25">
          <mxGeometry relative="1" as="geometry">
            <mxPoint x="40" y="240" as="sourcePoint" />
            <mxPoint x="-30" y="239.47" as="targetPoint" />
          </mxGeometry>
        </mxCell>
        <mxCell id="BkWEKPThOtpIUI_U3NQu-61" value="Adds a new entry" style="edgeLabel;resizable=0;html=1;;align=center;verticalAlign=middle;" connectable="0" vertex="1" parent="BkWEKPThOtpIUI_U3NQu-60">
          <mxGeometry relative="1" as="geometry">
            <mxPoint as="offset" />
          </mxGeometry>
        </mxCell>
      </root>
    </mxGraphModel>
  </diagram>
</mxfile>
